<svg xmlns="http://www.w3.org/2000/svg" viewBox="0 0 172.015 86.563" height="327.166" width="650.135"><defs><path id="g" d="M17.216 43.674h15.875v21.167H17.216z"/><path id="f" d="M48.966 17.216h95.25v10.583h-95.25z"/><path id="a" d="M15.875 52.917h21.167v15.875H15.875z"/><path id="b" d="M15.875 52.917h21.167v15.875H15.875z"/><path id="c" d="M15.875 52.917h21.167v15.875H15.875z"/><path id="d" d="M15.875 52.917h21.167v15.875H15.875z"/><path id="e" d="M15.875 52.917h21.167v15.875H15.875z"/><path id="h" d="M17.216 43.674h15.875v21.167H17.216z"/><path id="i" d="M17.216 43.674h15.875v21.167H17.216z"/><path id="j" d="M17.216 43.674h15.875v21.167H17.216z"/><path id="k" d="M17.216 43.674h15.875v21.167H17.216z"/></defs><path fill="none" stroke="#e6cd7e" stroke-width="3.265" stroke-linecap="square" d="M6.632 24.982h31.75v31.75H6.632zM38.382 24.982h31.75v31.75h-31.75zM70.132 24.982h31.75v31.75h-31.75zM101.882 24.982h31.75v31.75h-31.75zM133.632 24.982h31.75v31.75h-31.75z"/><text style="line-height:1.25;text-align:center;white-space:pre;shape-inside:url(#a)" x="2.661" transform="translate(-3.95 14.398)" font-weight="400" font-size="10.583" font-family="sans-serif"><tspan x="23.089" y="62.571"><tspan style="text-align:center" text-anchor="middle">0</tspan></tspan></text><path fill="none" stroke="#000" stroke-linecap="square" d="M17.216 65.187H27.8v15.875H17.216z"/><text x="2.661" style="line-height:1.25;text-align:center;white-space:pre;shape-inside:url(#b)" transform="translate(27.8 14.398)" font-weight="400" font-size="10.583" font-family="sans-serif"><tspan x="23.089" y="62.571"><tspan style="text-align:center" text-anchor="middle">1</tspan></tspan></text><path fill="none" stroke="#000" stroke-linecap="square" d="M48.966 65.187H59.55v15.875H48.966z"/><text transform="translate(59.55 14.398)" style="line-height:1.25;text-align:center;white-space:pre;shape-inside:url(#c)" x="2.661" font-weight="400" font-size="10.583" font-family="sans-serif"><tspan x="23.089" y="62.571"><tspan style="text-align:center" text-anchor="middle">2</tspan></tspan></text><path fill="none" stroke="#000" stroke-linecap="square" d="M80.716 65.187H91.3v15.875H80.716z"/><text x="2.661" style="line-height:1.25;text-align:center;white-space:pre;shape-inside:url(#d)" transform="translate(91.3 14.398)" font-weight="400" font-size="10.583" font-family="sans-serif"><tspan x="23.089" y="62.571"><tspan style="text-align:center" text-anchor="middle">3</tspan></tspan></text><path fill="none" stroke="#000" stroke-linecap="square" d="M112.466 65.187h10.583v15.875h-10.583z"/><text transform="translate(123.05 14.398)" style="line-height:1.25;text-align:center;white-space:pre;shape-inside:url(#e)" x="2.661" font-weight="400" font-size="10.583" font-family="sans-serif"><tspan x="23.089" y="62.571"><tspan style="text-align:center" text-anchor="middle">4</tspan></tspan></text><path fill="none" stroke="#000" stroke-linecap="square" d="M144.216 65.187H154.8v15.875h-10.583z"/><path d="M11.924 19.69s0-5.292 15.875-5.292h116.417s15.875 0 15.875 5.292" fill="none" stroke="#f45c36"/><text transform="translate(-10.676 -13.4)" x="16.614" style="line-height:1.25;-inkscape-font-specification:'sans-serif, Normal';font-variant-ligatures:normal;font-variant-caps:normal;font-variant-numeric:normal;font-variant-east-asian:normal;text-align:center;white-space:pre;shape-inside:url(#f)" font-weight="400" font-size="7.761" font-family="sans-serif" fill="#f45c36"><tspan x="77.659" y="24.297"><tspan style="-inkscape-font-specification:'sans-serif, Normal';font-variant-ligatures:normal;font-variant-caps:normal;font-variant-numeric:normal;font-variant-east-asian:normal">Length: 5</tspan></tspan></text><text transform="translate(-2.655 -10.741)" x="6.05" style="line-height:1.25;white-space:pre;shape-inside:url(#g)" font-size="12.7" font-family="sans-serif"><tspan x="18.937" y="55.26"><tspan style="-inkscape-font-specification:'Consolas Bold';text-align:center" font-weight="700" font-size="11.289" font-family="Consolas" text-anchor="middle">12</tspan></tspan></text><text transform="translate(29.095 -10.741)" style="line-height:1.25;white-space:pre;shape-inside:url(#h)" x="6.05" font-size="12.7" font-family="sans-serif"><tspan x="22.045" y="55.26"><tspan style="-inkscape-font-specification:'Consolas Bold';text-align:center" font-weight="700" font-size="11.289" font-family="Consolas" text-anchor="middle">5</tspan></tspan></text><text x="6.05" style="line-height:1.25;white-space:pre;shape-inside:url(#i)" transform="translate(60.845 -10.741)" font-size="12.7" font-family="sans-serif"><tspan x="18.937" y="55.26"><tspan style="-inkscape-font-specification:'Consolas Bold';text-align:center" font-weight="700" font-size="11.289" font-family="Consolas" text-anchor="middle">15</tspan></tspan></text><text transform="translate(92.595 -10.741)" style="line-height:1.25;white-space:pre;shape-inside:url(#j)" x="6.05" font-size="12.7" font-family="sans-serif"><tspan x="18.937" y="55.26"><tspan style="-inkscape-font-specification:'Consolas Bold';text-align:center" font-weight="700" font-size="11.289" font-family="Consolas" text-anchor="middle">78</tspan></tspan></text><text x="6.05" style="line-height:1.25;white-space:pre;shape-inside:url(#k)" transform="translate(124.345 -10.741)" font-size="12.7" font-family="sans-serif"><tspan x="18.937" y="55.26"><tspan style="-inkscape-font-specification:'Consolas Bold';text-align:center" font-weight="700" font-size="11.289" font-family="Consolas" text-anchor="middle">32</tspan></tspan></text></svg>