<svg xmlns="http://www.w3.org/2000/svg" viewBox="0 0 172.015 86.563" height="327.166" width="650.135"><defs><path id="f" d="M17.216 43.674h15.875v21.167H17.216z"/><path id="e" d="M48.966 17.216h95.25v10.583h-95.25z"/><path id="a" d="M15.875 52.917h21.167v15.875H15.875z"/><path id="b" d="M15.875 52.917h21.167v15.875H15.875z"/><path id="c" d="M15.875 52.917h21.167v15.875H15.875z"/><path id="d" d="M15.875 52.917h21.167v15.875H15.875z"/></defs><g fill="none" stroke="#e6cd7e" stroke-width="3.265" stroke-linecap="square"><path d="M22.507 24.982h31.75v31.75h-31.75z"/><path d="M54.257 24.982h31.75v31.75h-31.75zM86.007 24.982h31.75v31.75h-31.75zM117.757 24.982h31.75v31.75h-31.75z"/></g><text transform="translate(11.924 14.398)" x="2.661" style="line-height:1.25;text-align:center;white-space:pre;shape-inside:url(#a)" font-weight="400" font-size="10.583" font-family="sans-serif"><tspan x="23.089" y="62.571"><tspan style="text-align:center" text-anchor="middle">0</tspan></tspan></text><path fill="none" stroke="#000" stroke-linecap="square" d="M33.091 65.187h10.583v15.875H33.091z"/><text transform="translate(43.674 14.398)" style="line-height:1.25;text-align:center;white-space:pre;shape-inside:url(#b)" x="2.661" font-weight="400" font-size="10.583" font-family="sans-serif"><tspan x="23.089" y="62.571"><tspan style="text-align:center" text-anchor="middle">1</tspan></tspan></text><path fill="none" stroke="#000" stroke-linecap="square" d="M64.841 65.187h10.583v15.875H64.841z"/><text x="2.661" style="line-height:1.25;text-align:center;white-space:pre;shape-inside:url(#c)" transform="translate(75.424 14.398)" font-weight="400" font-size="10.583" font-family="sans-serif"><tspan x="23.089" y="62.571"><tspan style="text-align:center" text-anchor="middle">2</tspan></tspan></text><path fill="none" stroke="#000" stroke-linecap="square" d="M96.591 65.187h10.583v15.875H96.591z"/><text transform="translate(107.174 14.398)" style="line-height:1.25;text-align:center;white-space:pre;shape-inside:url(#d)" x="2.661" font-weight="400" font-size="10.583" font-family="sans-serif"><tspan x="23.089" y="62.571"><tspan style="text-align:center" text-anchor="middle">3</tspan></tspan></text><path fill="none" stroke="#000" stroke-linecap="square" d="M128.341 65.187h10.583v15.875h-10.583z"/><path d="M29.775 19.69s0-5.292 15.875-5.292h80.715s15.875 0 15.875 5.292" fill="none" stroke="#f45c36"/><text style="line-height:1.25;-inkscape-font-specification:'sans-serif, Normal';font-variant-ligatures:normal;font-variant-caps:normal;font-variant-numeric:normal;font-variant-east-asian:normal;text-align:center;white-space:pre;shape-inside:url(#e)" x="16.614" transform="translate(-10.685 -13.4)" font-weight="400" font-size="7.761" font-family="sans-serif" fill="#f45c36"><tspan x="77.659" y="24.297"><tspan style="-inkscape-font-specification:'sans-serif, Normal';font-variant-ligatures:normal;font-variant-caps:normal;font-variant-numeric:normal;font-variant-east-asian:normal">Length: 4</tspan></tspan></text><text style="line-height:1.25;white-space:pre;shape-inside:url(#f)" x="6.05" transform="translate(13.22 -10.741)" font-size="12.7" font-family="sans-serif"><tspan x="18.937" y="55.26"><tspan style="-inkscape-font-specification:'Consolas Bold';text-align:center" font-weight="700" font-size="11.289" font-family="Consolas" text-anchor="middle">45</tspan></tspan></text></svg>