<svg xmlns="http://www.w3.org/2000/svg" viewBox="0 0 210 297" height="297mm" width="210mm"><defs><path id="a" d="M62.177 160.073h67.469v19.844H62.177z"/></defs><path d="M58.208 37.042h26.459V5.292h-63.5v31.75h31.75V10.583" fill="none" stroke="#0081a7" stroke-width="1.965" stroke-linecap="square"/><text style="line-height:1.25;-inkscape-font-specification:'sans-serif Bold'" x="28.424" y="17.992" font-weight="700" font-size="5.644" font-family="sans-serif" fill="#fff" stroke-width=".265"><tspan x="28.424" y="17.992" style="-inkscape-font-specification:'sans-serif Bold'">0010</tspan></text><path d="M62.442 15.875h15.875" fill="none" stroke="#fff" stroke-width="5"/><text y="28.575" x="28.424" style="line-height:1.25;-inkscape-font-specification:'sans-serif Bold'" font-weight="700" font-size="5.644" font-family="sans-serif" fill="#fff" stroke-width=".265"><tspan style="-inkscape-font-specification:'sans-serif Bold'" y="28.575" x="28.424">0010</tspan></text><path d="M62.442 26.458h15.875" fill="none" stroke="#fff" stroke-width="5"/><path d="M57.215 36.876v10.22l1.82-2.555 1.82 2.555v-10.22z" fill="#0081a7"/><path d="M142.875 37.042h27.517V5.292h-63.5v31.75h31.75V10.583" fill="none" stroke="#e63946" stroke-width="1.965"/><text style="line-height:1.25;-inkscape-font-specification:'sans-serif Bold'" x="28.424" y="17.992" font-weight="700" font-size="5.644" font-family="sans-serif" fill="#fcfcfc" stroke-width=".265" transform="translate(85.725)"><tspan x="28.424" y="17.992" style="-inkscape-font-specification:'sans-serif Bold'">0010</tspan></text><path d="M148.167 15.875h15.875" fill="none" stroke="#fff" stroke-width="5"/><text y="28.575" x="28.424" style="line-height:1.25;-inkscape-font-specification:'sans-serif Bold'" font-weight="700" font-size="5.644" font-family="sans-serif" fill="#fcfcfc" stroke-width=".265" transform="translate(85.725)"><tspan style="-inkscape-font-specification:'sans-serif Bold'" y="28.575" x="28.424">0010</tspan></text><path d="M148.167 26.458h15.875" fill="none" stroke="#fff" stroke-width="5"/><path d="M142.875 36.876v10.22l1.852-2.555 1.852 2.555v-10.22z" fill="#e63946"/><path d="M142.875 37.042h27.517V5.292h-63.5v31.75h31.75V10.583" fill="none" stroke="#e63946" stroke-width="1.965"/><g><path d="M143.41 83.814h27.516v-31.75h-63.5v31.75h31.75V57.356" fill="none" stroke="#e63946" stroke-width="1.965"/><text style="line-height:1.25;-inkscape-font-specification:'sans-serif Bold'" x="114.149" y="17.992" font-weight="700" font-size="5.644" font-family="sans-serif" fill="#a8dadc" stroke-width=".265" transform="translate(.535 46.772)"><tspan x="114.149" y="17.992" style="-inkscape-font-specification:'sans-serif Bold'">0010</tspan></text><path d="M148.701 62.647h15.875" fill="none" stroke="#a8dadc" stroke-width="5"/><text y="28.575" x="114.149" style="line-height:1.25;-inkscape-font-specification:'sans-serif Bold'" font-weight="700" font-size="5.644" font-family="sans-serif" fill="#a8dadc" stroke-width=".265" transform="translate(.535 46.772)"><tspan style="-inkscape-font-specification:'sans-serif Bold'" y="28.575" x="114.149">0010</tspan></text><path d="M148.701 73.23h15.875" fill="none" stroke="#a8dadc" stroke-width="5"/><path d="M143.41 83.648v10.22l1.852-2.555 1.852 2.555v-10.22z" fill="#e63946"/><path d="M143.41 83.814h27.516v-31.75h-63.5v31.75h31.75V57.356" fill="none" stroke="#e63946" stroke-width="1.965"/></g><g><text y="112.872" x="114.683" style="line-height:1.25;-inkscape-font-specification:'sans-serif Bold'" font-weight="700" font-size="5.644" font-family="sans-serif" fill="#f56770" stroke-width=".265" transform="translate(0 -1.058)"><tspan style="-inkscape-font-specification:'sans-serif Bold'" y="112.872" x="114.683">0010</tspan></text><path d="M148.701 109.697h15.875" fill="none" stroke="#f56770" stroke-width="5"/><text style="line-height:1.25;-inkscape-font-specification:'sans-serif Bold'" x="114.683" y="123.456" font-weight="700" font-size="5.644" font-family="sans-serif" fill="#f56770" stroke-width=".265" transform="translate(0 -1.058)"><tspan x="114.683" y="123.456" style="-inkscape-font-specification:'sans-serif Bold'">0010</tspan></text><path d="M148.701 120.28h15.875" fill="none" stroke="#f56770" stroke-width="5"/><path d="M143.41 130.698v10.22l1.852-2.555 1.852 2.555v-10.22z" fill="#e63946"/><path d="M143.41 130.864h27.516v-31.75h-63.5v31.75h31.75v-26.458" fill="none" stroke="#e63946" stroke-width="1.965"/></g><g><path d="M58.208 83.533h26.459v-31.75h-63.5v31.75h31.75V57.074" fill="none" stroke="#0081a7" stroke-width="1.965" stroke-linecap="square"/><text y="17.992" x="28.424" style="line-height:1.25;-inkscape-font-specification:'sans-serif Bold'" font-weight="700" font-size="5.644" font-family="sans-serif" fill="#f07167" stroke-width=".265" transform="translate(0 46.491)"><tspan style="-inkscape-font-specification:'sans-serif Bold'" y="17.992" x="28.424">0010</tspan></text><path d="M62.442 62.366h15.875" fill="none" stroke="#f07167" stroke-width="5"/><text style="line-height:1.25;-inkscape-font-specification:'sans-serif Bold'" x="28.424" y="28.575" font-weight="700" font-size="5.644" font-family="sans-serif" fill="#f07167" stroke-width=".265" transform="translate(0 46.491)"><tspan x="28.424" y="28.575" style="-inkscape-font-specification:'sans-serif Bold'">0010</tspan></text><path d="M62.442 72.95h15.875" fill="none" stroke="#f07167" stroke-width="5"/><path d="M57.215 83.367v10.22l1.82-2.555 1.82 2.555v-10.22z" fill="#0081a7"/></g><g><path d="M59.342 130.78h26.459V99.03H22.3v31.75h31.75V104.32" fill="none" stroke="#0081a7" stroke-width="1.965" stroke-linecap="square"/><text style="line-height:1.25;-inkscape-font-specification:'sans-serif Bold'" x="28.424" y="17.992" font-weight="700" font-size="5.644" font-family="sans-serif" fill="#b7eeff" fill-opacity=".6" stroke-width=".265" transform="translate(1.134 93.738)"><tspan x="28.424" y="17.992" style="-inkscape-font-specification:'sans-serif Bold'">0010</tspan></text><path d="M63.576 109.613H79.45" fill="none" stroke="#b8eeff" stroke-width="5" stroke-opacity=".592"/><text y="28.575" x="28.424" style="line-height:1.25;-inkscape-font-specification:'sans-serif Bold'" font-weight="700" font-size="5.644" font-family="sans-serif" fill="#b7eeff" fill-opacity=".6" stroke-width=".265" transform="translate(1.134 93.738)"><tspan style="-inkscape-font-specification:'sans-serif Bold'" y="28.575" x="28.424">0010</tspan></text><path d="M63.576 120.196H79.45" fill="none" stroke="#b8eeff" stroke-width="5" stroke-opacity=".592"/><path d="M58.349 130.614v10.22l1.82-2.555 1.82 2.555v-10.22z" fill="#0081a7"/></g><g><text y="112.872" x="114.683" style="line-height:1.25;-inkscape-font-specification:'sans-serif Bold'" font-weight="700" font-size="5.644" font-family="sans-serif" fill="#fff" stroke-width=".265" transform="translate(-43.09 141.019)"><tspan style="-inkscape-font-specification:'sans-serif Bold'" y="112.872" x="114.683">0010</tspan></text><path d="M105.612 251.775h15.875" fill="none" stroke="#fff" stroke-width="5"/><text style="line-height:1.25;-inkscape-font-specification:'sans-serif Bold'" x="114.683" y="123.456" font-weight="700" font-size="5.644" font-family="sans-serif" fill="#fff" stroke-width=".265" transform="translate(-43.09 141.019)"><tspan x="114.683" y="123.456" style="-inkscape-font-specification:'sans-serif Bold'">0010</tspan></text><path d="M105.612 262.358h15.875" fill="none" stroke="#fff" stroke-width="5"/><path d="M100.32 272.776v10.22l1.852-2.556 1.852 2.555v-10.22z" fill="#dab645"/><path d="M100.32 272.941h27.517v-31.75h-63.5v31.75h31.75v-26.458" fill="none" stroke="#dab645" stroke-width="3.265"/></g><g><text style="line-height:1.25;-inkscape-font-specification:'sans-serif Bold'" x="71.594" y="195.627" font-weight="700" font-size="5.644" font-family="sans-serif" fill="#e6cd7e" stroke-width=".265"><tspan x="71.594" y="195.627" style="-inkscape-font-specification:'sans-serif Bold'">0010</tspan></text><path d="M105.612 193.51h15.875" fill="none" stroke="#e6cd7e" stroke-width="5"/><text y="206.21" x="71.594" style="line-height:1.25;-inkscape-font-specification:'sans-serif Bold'" font-weight="700" font-size="5.644" font-family="sans-serif" fill="#e6cd7e" stroke-width=".265"><tspan style="-inkscape-font-specification:'sans-serif Bold'" y="206.21" x="71.594">0010</tspan></text><path d="M105.612 204.093h15.875" fill="none" stroke="#e6cd7e" stroke-width="5"/><path d="M100.32 214.51v10.22l1.852-2.554 1.852 2.555v-10.22z" fill="#dab645"/><path d="M100.32 214.677h27.517v-31.75h-63.5v31.75h31.75v-26.459" fill="none" stroke="#dab645" stroke-width="3.265"/><text style="line-height:1.25;-inkscape-font-specification:Forte;white-space:pre;shape-inside:url(#a)" x="26.766" transform="translate(0 2.117)" font-weight="400" font-size="16.933" font-family="Forte" fill="#e6cd7e"><tspan x="64.793" y="175.038"><tspan style="-inkscape-font-specification:'Lucida Console Semi-Condensed'" font-stretch="semi-condensed" font-size="12.7" font-family="Lucida Console">CS</tspan><tspan style="-inkscape-font-specification:Forte;text-align:center" font-size="14.111" text-anchor="middle">notehub</tspan></tspan></text></g></svg>