<svg xmlns="http://www.w3.org/2000/svg" viewBox="0 0 69 69" height="69mm" width="69mm"><defs><path id="a" d="M62.177 160.073h67.469v19.844H62.177z"/></defs><text y="195.627" x="72.652" style="line-height:1.25;-inkscape-font-specification:'sans-serif Bold'" font-weight="700" font-size="5.644" font-family="sans-serif" fill="#e6cd7e" stroke-width=".265" transform="translate(-61.587 -161.475)"><tspan style="-inkscape-font-specification:'sans-serif Bold'" y="195.627" x="72.652">0010</tspan></text><path d="M44.025 32.035H59.9" fill="none" stroke="#e6cd7e" stroke-width="5"/><text style="line-height:1.25;-inkscape-font-specification:'sans-serif Bold'" x="72.652" y="206.21" font-weight="700" font-size="5.644" font-family="sans-serif" fill="#e6cd7e" stroke-width=".265" transform="translate(-61.587 -161.475)"><tspan x="72.652" y="206.21" style="-inkscape-font-specification:'sans-serif Bold'">0010</tspan></text><path d="M44.025 42.618H59.9" fill="none" stroke="#e6cd7e" stroke-width="5"/><path d="M38.733 53.036v10.22l1.852-2.555 1.852 2.555v-10.22z" fill="#dab645"/><path d="M38.733 53.202H66.25v-31.75H2.75v31.75H34.5V26.743" fill="none" stroke="#dab645" stroke-width="3.265"/><g style="line-height:1.25;-inkscape-font-specification:Forte;white-space:pre;shape-inside:url(#a)" transform="translate(-59.01 -159.358)" aria-label="CSnotehub" font-weight="400" font-size="16.933" font-family="Forte" fill="#e6cd7e"><path style="-inkscape-font-specification:'Lucida Console Semi-Condensed'" d="M69.34 174.79q-1.228.44-2.313.44-1.898 0-3.057-1.134-1.16-1.141-1.16-2.996 0-1.879 1.154-3.044 1.153-1.166 3.013-1.166 1.055 0 2.258.36v1.122q-1.228-.564-2.295-.564-1.234 0-2.034.905-.794.905-.794 2.307 0 1.414.9 2.313.899.899 2.313.899.855 0 2.015-.447zM76.106 167.268v1.06q-1.346-.52-2.394-.52-1.656 0-1.656 1.116 0 .452.31.731.31.273 1.147.565l.782.273.744.254q1.73.608 1.73 2.059 0 1.103-.887 1.767-.88.657-2.362.657-1.03 0-2.66-.44v-1.21q1.624.733 2.697.733.905 0 1.445-.354.54-.36.54-.961 0-.459-.323-.726-.316-.266-1.315-.632l-.818-.298q-1.222-.452-1.7-.93-.47-.477-.47-1.271 0-1.073.725-1.662.731-.59 2.052-.59 1.073 0 2.413.379z" font-stretch="semi-condensed" font-size="12.7" font-family="Lucida Console"/><path style="-inkscape-font-specification:Forte;text-align:center" d="M80.821 171.4l.414-.482q.627-.696.992-1.034.372-.344.661-.496.297-.151.6-.151.489 0 .689.261.2.262.2.91 0 .269-.056.792-.082.696-.082 1.31 0 .688.069 1.116.048.261.144.523.07.248.07.338 0 .11-.083.172-.214.186-.565.324-.352.138-.593.138-.393 0-.717-.269-.317-.269-.496-.744-.172-.475-.172-1.075 0-.4.083-.944l-.028-.027q-.296.33-.482.523l-.338.365q-.771.882-1.309 1.592-.207.276-.379.482-.255.255-.579.255-.44 0-.716-.33-.276-.331-.276-.855 0-.324.076-.792.076-.469.2-1 .13-.537.303-1.102.18-.565.386-1.075.317-.847.772-1.323.31-.31.75-.31.717 0 .717.93 0 .683-.282 1.95zM89.654 168.107q1.027 0 1.027.24 0 .276-.462.297-.558.034-1.04.317-.482.282-.861.772-.372.489-.586 1.102-.207.613-.207 1.295 0 .751.352 1.213.351.455.916.455.524 0 .917-.538.392-.537.392-1.254 0-.585-.248-1.095-.24-.517-.71-.868-.2-.159-.2-.228 0-.096.283-.296.317-.214.71-.358.393-.145.661-.145.31 0 .586.165.283.159.496.462.214.296.324.69.117.385.117.826 0 .73-.275 1.447-.276.71-.724 1.15-.579.559-1.399.917-.813.351-1.55.351-.717 0-1.426-.248-.703-.248-1.116-.654-.552-.552-.552-1.564 0-.8.393-1.599.393-.8 1.061-1.447.675-.654 1.482-1.026.813-.38 1.64-.38zM94.03 168.375l.027-.082q.455-1.282.786-1.806.158-.248.44-.44.531-.338 1-.338.275 0 .42.124.145.124.145.358 0 .159-.207.648-.351.813-.524 1.523.118.013.228.04.413.063.544.145.131.076.131.283 0 .365-.186.675-.186.31-.49.455-.227.103-.736.138-.09.269-.2.737-.062.413-.138 1.144-.041.269-.041.503 0 1.088 1.054 1.088h.061q.125 0 .125.042 0 .11-.234.372-.235.262-.517.461-.303.207-.662.331-.358.124-.647.124-.724 0-1.179-.489-.447-.49-.447-1.295 0-.345.117-.903.124-.558.379-1.495.041-.166.09-.345.047-.186.054-.22-.275-.007-.392-.117-.118-.11-.118-.359 0-.434.331-.82.338-.385.786-.482zM99.948 172.895q.317-.213.483-.427.365-.448.565-1.027.158-.379.248-.847.09-.469.09-.875 0-.38-.16-.38-.22 0-.674.972-.27.586-.441 1.172-.166.579-.166.999 0 .145.055.413zm.014.22q.076.414.538.414.516 0 1.343-.606.482-.352.648-.352.207 0 .386.11.179.11.179.228 0 .124-.2.324-.365.365-.84.716-.476.345-.917.58-.44.227-.882.364-.44.131-.785.131-.862 0-1.378-.489-.517-.496-.517-1.316 0-.627.269-1.412.275-.793.737-1.482.544-.806 1.336-1.343.979-.648 1.875-.648.647 0 1.012.413.373.407.373 1.123 0 .559-.297 1.165-.29.606-.861 1.164-.469.469-.923.73-.448.263-.786.263-.151 0-.31-.076zM108.244 166.639v-.11q0-.255-.069-.255-.09 0-.282.275-.186.276-.338.614-.379.86-.668 1.826-.29.957-.448 1.915l-.117.806.034.028q.69-.71 1.027-1.006.338-.297.875-.675.675-.469 1.116-.469.283 0 .434.207.159.2.159.558 0 .207-.083.592-.145.813-.145 1.372 0 .254.042.537.034.22.227.889.159.51.159.565 0 .096-.228.234-.73.482-1.343.482-.503 0-.82-.489-.31-.489-.31-1.275 0-.31.062-.75l-.035-.028q-.978 1.006-1.309 1.357-1.226 1.185-1.888 1.185-.303 0-.503-.4-.193-.406-.193-1.054 0-1.391.861-3.555.345-.84.73-1.605.387-.772.738-1.33.255-.393.53-.682.283-.296.566-.49.289-.2.585-.296.297-.096.593-.096.737 0 1.199.455.468.454.468 1.164 0 .496-.282 1.054-.283.558-.793 1.061-.323.317-.737.565-.406.241-.634.241-.069 0-.124-.048-.055-.048-.055-.124 0-.103.18-.448.206-.379.406-.923.2-.551.303-1.04.11-.496.11-.834zM114.92 172.881l-.116.097q-.035.02-.462.351-.827.648-1.364 1.027-.538.372-.896.551-.358.172-.579.172-.372 0-.6-.303-.22-.31-.22-.799 0-.827.248-1.922.248-1.103.669-2.17.461-1.186 1.13-1.448.234-.103.55-.103.435 0 .704.269.268.268.268.71 0 .303-.103.64-.103.338-.33.806l-.083.2q-.593 1.254-.593 1.523 0 .158.11.158.104 0 .269-.144.165-.145.51-.53.213-.263.606-.655l.255-.255.22-.235q.697-.689 1.138-.992.44-.31.73-.31.551 0 .551.958 0 .2-.048.71-.083.992-.083 1.68.007.139.007.256.007.11.007.289.048.462.07.71l.047.392q0 .207-.372.366-.372.158-.861.158-.448 0-.772-.172-.317-.18-.482-.524-.165-.344-.165-.84 0-.062.013-.214.014-.158.028-.406zM122.121 172.103q-.172.055-.241.055-.241 0-.4-.18-.151-.178-.151-.454 0-.544.385-1.406.386-.86.814-1.274.31-.31.702-.31.303 0 .524.206.22.2.338.586.117.38.117.889 0 1.282-.538 2.405-.537 1.123-1.433 1.791-.896.668-1.922.668-.669 0-1.165-.317-.496-.316-.771-.909-.27-.6-.27-1.385 0-.744.242-1.667.241-.93.675-1.888.434-.965 1.034-1.874.634-.986 1.454-1.537.565-.4 1.185-.4.634 0 1.013.386.379.386.379 1.027 0 .455-.352.958-.344.496-.875.82-.524.323-1.027.323-.24 0-.24-.124 0-.096.2-.351.33-.413.557-.95.228-.545.228-.945 0-.365-.11-.365-.138 0-.428.455t-.517 1.04q-.537 1.406-.826 2.674-.29 1.26-.29 2.15 0 .668.214 1.13.22.454.53.454.393 0 .655-.44.262-.449.31-1.241z" font-size="14.111" text-anchor="middle"/></g></svg>